<?xml version="1.0" standalone="no"?>
<!DOCTYPE svg PUBLIC "-//W3C//DTD SVG 20010904//EN"
 "http://www.w3.org/TR/2001/REC-SVG-20010904/DTD/svg10.dtd">
<svg version="1.0" xmlns="http://www.w3.org/2000/svg"
 width="450.000000pt" height="450.000000pt" viewBox="0 0 450.000000 450.000000"
 preserveAspectRatio="xMidYMid meet">

<g transform="translate(0.000000,450.000000) scale(0.100000,-0.100000)"
fill="#000000" stroke="none">
<path d="M1785 4469 c-831 -173 -1483 -778 -1719 -1593 -59 -203 -61 -221 -61
-631 l0 -380 32 -127 c86 -336 236 -643 441 -902 84 -106 285 -301 394 -383
278 -209 566 -340 907 -413 52 -11 109 -20 126 -20 17 0 36 -5 41 -10 14 -14
555 -7 651 9 39 6 123 24 185 40 646 163 1181 590 1476 1177 55 108 94 199
124 284 46 132 98 364 98 436 0 23 5 46 10 49 6 4 10 98 10 250 0 152 -4 246
-10 250 -5 3 -10 26 -10 50 0 100 -63 347 -136 531 -269 683 -840 1181 -1564
1364 -175 45 -231 50 -555 49 -292 0 -304 -1 -440 -30z m640 -110 c695 -59
1326 -468 1665 -1079 156 -281 237 -562 260 -899 29 -421 -74 -841 -296 -1211
-36 -60 -83 -128 -105 -152 -22 -24 -37 -37 -34 -30 5 10 0 11 -22 6 -15 -4
-30 -10 -33 -13 -3 -3 -15 -6 -27 -7 -63 -2 -83 -5 -83 -13 0 -4 24 -8 53 -7
50 1 52 0 49 -24 -3 -24 -3 -24 11 -6 8 11 12 28 9 38 -5 20 13 25 24 6 5 -7
3 -8 -6 -3 -10 6 -12 4 -7 -8 5 -14 -19 -50 -80 -117 -2 -2 -1 4 3 15 7 18 6
19 -10 6 -9 -8 -15 -20 -12 -26 2 -7 -11 -28 -30 -46 -24 -23 -33 -28 -28 -15
10 25 -12 13 -27 -16 -9 -16 -8 -19 3 -13 7 4 -4 -9 -25 -31 -33 -33 -41 -36
-58 -26 -23 15 -25 9 -3 -13 15 -14 13 -15 -17 -10 -19 3 -29 2 -23 -2 21 -14
-3 -53 -36 -60 -17 -3 -38 -16 -46 -29 -24 -35 -196 -147 -330 -213 -122 -60
-354 -143 -434 -156 -25 -4 -70 -13 -100 -21 -30 -8 -82 -14 -115 -14 -34 0
-66 -5 -72 -11 -18 -18 -517 -7 -568 13 -22 9 -69 21 -104 27 -176 33 -611
213 -603 250 2 8 -3 11 -11 8 -19 -7 -55 12 -146 80 -99 73 -132 104 -124 116
3 6 1 7 -5 3 -25 -15 -268 238 -265 276 1 13 -1 17 -4 10 -4 -10 -8 -10 -19
-1 -12 10 -8 16 23 35 44 27 40 30 -10 9 -20 -8 -39 -15 -41 -15 -9 0 -81 102
-135 193 -143 238 -236 496 -282 787 -21 128 -18 528 4 650 73 400 229 732
483 1030 328 385 801 646 1294 714 191 27 320 31 495 15z"/>
<path d="M2394 3631 c4 -6 39 -11 84 -12 42 0 102 -5 132 -10 30 -5 92 -12
138 -15 56 -5 82 -11 82 -19 0 -14 -48 -24 -160 -31 -91 -7 -118 -24 -39 -25
50 -1 52 -2 19 -9 -19 -4 -73 -13 -119 -19 -79 -10 -85 -10 -98 9 -8 11 -24
20 -36 20 -13 0 -33 7 -45 16 -18 13 -45 15 -135 12 -106 -3 -115 -5 -163 -35
l-51 -33 -114 10 c-63 6 -136 11 -164 13 -33 1 -11 5 64 11 133 10 129 24 -9
28 -64 2 -95 7 -98 16 -3 9 14 12 60 12 35 1 92 7 128 15 36 8 95 14 133 15
41 0 67 4 67 11 0 8 -51 8 -177 2 -191 -9 -614 -7 -702 3 -37 4 -51 2 -47 -5
4 -6 28 -11 54 -11 26 0 92 -7 146 -15 55 -8 121 -15 148 -15 41 0 48 -3 48
-19 0 -17 -10 -20 -77 -27 -43 -4 -235 -4 -428 -1 -210 3 -328 2 -295 -3 190
-30 340 -45 440 -44 63 1 98 -1 78 -3 -36 -4 -38 -6 -38 -40 0 -20 9 -46 20
-60 11 -14 20 -32 20 -40 0 -8 14 -27 31 -43 30 -27 32 -33 45 -157 18 -167
18 -162 -11 -173 -14 -5 -25 -14 -25 -19 0 -14 41 -41 52 -35 5 3 6 -6 2 -20
-5 -23 -3 -26 21 -26 25 0 26 2 21 43 -28 215 -34 352 -16 394 13 31 16 32 94
38 45 4 95 5 111 3 30 -3 30 -4 33 -72 2 -56 0 -71 -15 -82 -17 -14 -17 -15 5
-30 12 -9 22 -23 22 -30 0 -15 16 -19 23 -6 3 4 0 56 -5 116 -5 59 -6 112 -1
116 4 4 92 16 196 26 208 19 221 17 200 -34 -24 -56 -251 -648 -258 -669 -4
-16 -2 -23 8 -23 18 0 61 46 53 58 -3 5 5 25 17 43 24 35 97 236 97 266 0 14
3 13 16 -6 13 -18 14 -25 4 -31 -8 -5 -9 -10 -1 -14 6 -4 10 -37 9 -76 -1 -39
2 -73 5 -77 9 -8 57 44 57 63 0 7 -5 14 -11 14 -6 0 -9 9 -6 19 3 13 -1 21
-14 24 -11 3 -19 10 -19 16 0 16 26 13 41 -5 17 -21 83 -54 107 -54 11 0 22
-9 25 -20 8 -31 82 -28 112 4 16 18 20 27 12 35 -8 8 -4 11 12 11 15 0 48 24
95 70 l72 69 -3 -119 c-2 -73 0 -120 6 -120 6 0 22 11 36 24 l27 25 -20 28
c-11 15 -23 51 -26 78 l-6 50 19 -40 c36 -76 98 -220 122 -282 13 -35 30 -63
36 -63 19 0 17 88 -3 107 -9 10 -13 25 -10 38 8 32 -115 332 -167 409 -24 35
-35 66 -22 66 2 0 11 -12 19 -27 8 -16 15 -23 16 -18 0 6 -10 26 -23 45 -32
48 -60 121 -50 131 5 5 45 4 88 -1 44 -5 142 -17 218 -27 l137 -16 0 -115 c0
-102 2 -113 15 -102 9 7 14 19 11 27 -3 8 2 13 14 13 23 0 26 18 6 34 -16 12
-19 28 -17 100 l1 49 78 -7 c113 -10 142 -16 142 -32 0 -8 7 -17 16 -21 15 -6
16 -21 10 -137 -7 -117 -13 -202 -19 -261 -3 -30 31 -32 38 -2 4 14 19 30 33
37 l27 12 -29 23 -29 23 8 96 c4 54 12 101 18 106 7 5 26 21 43 35 18 13 34
34 37 45 4 15 -5 10 -35 -20 -22 -22 -44 -40 -47 -40 -4 0 -6 13 -3 29 3 21
16 38 43 56 22 14 39 33 39 44 0 10 7 32 15 47 30 58 16 84 -42 84 -15 0 -24
3 -21 6 3 3 52 6 109 7 57 2 156 11 219 21 63 10 146 22 183 28 38 5 67 12 65
14 -6 5 -541 -16 -562 -22 -10 -4 -74 -3 -141 1 l-123 7 -4 28 c-4 28 -3 28
51 33 90 6 253 28 286 37 19 6 -18 7 -100 4 -215 -8 -378 -8 -604 0 -157 6
-212 5 -207 -3z m556 -41 c0 -5 -7 -10 -15 -10 -8 0 -15 5 -15 10 0 6 7 10 15
10 8 0 15 -4 15 -10z m195 -107 c-11 -3 -25 -12 -32 -20 -10 -13 -24 -14 -80
-8 -37 4 -79 8 -92 7 -13 0 -19 4 -14 9 4 4 51 10 103 12 52 1 104 3 115 4
l20 1 -20 -5z m-1595 -13 c0 -5 -8 -10 -17 -10 -10 0 -42 -3 -70 -6 -45 -6
-53 -4 -53 10 0 13 12 16 70 16 40 0 70 -4 70 -10z m1308 -23 c3 -17 -6 -18
-132 -16 -75 1 -134 4 -131 8 7 7 198 29 235 27 15 0 26 -8 28 -19z m-1038 -4
c57 -9 8 -21 -87 -22 -63 -1 -83 2 -83 12 0 8 3 17 6 20 7 6 98 1 164 -10z
m200 3 c0 -17 -53 -28 -82 -16 -21 8 -20 9 9 9 17 1 35 6 38 11 9 15 35 12 35
-4z m485 4 c13 0 16 -3 9 -10 -6 -6 -35 -7 -74 -3 -47 4 -59 9 -45 14 11 5 36
6 55 4 19 -3 44 -5 55 -5z m-450 -10 c3 -5 1 -10 -4 -10 -6 0 -11 5 -11 10 0
6 2 10 4 10 3 0 8 -4 11 -10z m117 -32 c-7 -7 -12 -8 -12 -2 0 14 12 26 19 19
2 -3 -1 -11 -7 -17z m118 12 c0 -5 -4 -10 -9 -10 -6 0 -13 5 -16 10 -3 6 1 10
9 10 9 0 16 -4 16 -10z m-120 -50 c-36 -12 -60 -12 -60 0 0 6 19 10 43 9 36
-1 38 -2 17 -9z m192 -9 c-5 -3 -39 -4 -73 -1 l-64 4 65 6 c66 5 90 2 72 -9z
m-6 -26 c11 -3 64 -90 64 -105 0 -10 -57 17 -66 31 -4 6 -27 8 -58 5 l-51 -5
45 13 c49 15 39 19 -50 18 -89 -1 -91 -2 -85 -12 3 -5 -3 -10 -14 -10 -13 0
-26 -12 -36 -30 -9 -18 -23 -30 -35 -30 -17 0 -19 5 -14 28 12 51 36 92 58 97
55 12 202 12 242 0z m-8 -118 c2 -10 -3 -17 -12 -17 -9 0 -16 2 -16 4 0 2 -3
12 -6 21 -5 13 -2 16 12 13 10 -2 20 -11 22 -21z m-264 -242 c33 -30 55 -55
50 -55 -14 0 -124 89 -124 100 0 19 15 10 74 -45z"/>
<path d="M1210 3362 c0 -23 62 -129 85 -146 26 -18 27 -18 17 0 -6 11 -24 36
-40 57 -17 21 -34 51 -37 68 -6 26 -25 42 -25 21z"/>
<path d="M3293 3339 c-12 -30 -11 -32 3 -17 9 8 14 23 12 33 -2 12 -7 7 -15
-16z"/>
<path d="M2345 2880 c38 -25 55 -25 55 0 0 17 -7 20 -42 20 l-43 0 30 -20z"/>
<path d="M295 2478 c-3 -7 -4 -139 -3 -293 l3 -280 45 0 45 0 5 124 5 125 130
3 c72 2 136 6 143 8 6 2 12 16 12 30 l0 25 -145 0 -145 0 0 100 0 100 166 0
165 0 -3 33 -3 32 -208 3 c-162 2 -209 0 -212 -10z"/>
<path d="M2469 2473 c-20 -33 -227 -558 -222 -565 2 -5 22 -8 44 -8 39 0 40 1
66 60 l26 61 146 -3 146 -3 22 -55 22 -55 45 -1 c25 0 46 3 46 6 0 19 -223
566 -233 572 -24 15 -96 9 -108 -9z m119 -236 c29 -75 52 -139 52 -142 0 -3
-52 -5 -116 -5 -64 0 -114 4 -112 8 2 5 27 72 57 151 30 78 57 138 61 134 4
-4 30 -70 58 -146z"/>
<path d="M2080 2426 c0 -25 3 -47 8 -49 4 -2 24 -2 45 1 38 4 38 5 35 46 -3
41 -3 41 -45 44 l-43 3 0 -45z"/>
<path d="M800 2155 c0 -166 10 -203 62 -235 61 -37 172 -24 231 28 17 15 19
13 21 -20 1 -10 4 -18 9 -18 4 0 23 0 42 0 l35 0 0 196 0 195 -42 -3 -43 -3
-5 -143 c-5 -142 -5 -144 -33 -168 -36 -31 -119 -34 -157 -4 -24 18 -25 24
-28 147 -3 173 -3 173 -52 173 l-40 0 0 -145z"/>
<path d="M1326 2292 c-2 -4 -2 -94 1 -200 l6 -192 28 0 c59 0 59 0 59 152 0
134 1 140 25 163 18 19 35 25 68 25 78 0 81 -7 87 -182 l5 -153 41 -3 42 -3 3
145 c4 137 6 146 28 170 20 21 34 26 70 26 83 0 91 -18 91 -200 l0 -141 43 3
42 3 3 125 c5 219 -11 259 -111 268 -75 6 -100 -2 -141 -44 -32 -33 -35 -34
-41 -15 -12 40 -53 61 -119 61 -53 0 -66 -4 -98 -30 l-36 -29 -6 29 c-5 27 -9
30 -45 30 -22 0 -42 -4 -45 -8z"/>
<path d="M2080 2100 l0 -201 43 3 42 3 0 195 0 195 -42 3 -43 3 0 -201z"/>
<path d="M2929 2277 c-51 -34 -68 -78 -69 -175 0 -92 13 -134 55 -172 24 -23
35 -25 115 -25 78 0 91 3 112 23 14 12 27 22 31 22 14 0 6 -56 -13 -87 -23
-39 -60 -48 -166 -41 -72 5 -74 4 -74 -18 0 -19 8 -24 50 -33 129 -28 234 -1
275 69 18 31 20 56 23 233 2 136 0 202 -8 212 -6 7 -26 13 -45 13 -27 0 -35
-4 -35 -17 0 -29 -8 -29 -57 -5 -63 33 -147 33 -194 1z m216 -61 c43 -43 47
-171 8 -224 -18 -24 -28 -27 -85 -30 -52 -2 -69 1 -89 17 -22 17 -24 28 -27
110 -4 89 -4 91 26 121 27 26 37 30 87 30 46 0 60 -4 80 -24z"/>
<path d="M3394 2287 c-2 -7 -3 -96 -2 -197 l3 -185 40 0 40 0 5 135 c6 169 22
200 99 200 34 0 71 -39 71 -76 0 -30 9 -35 53 -27 43 7 47 27 21 93 -20 48
-55 70 -117 70 -35 0 -51 -7 -85 -36 l-42 -36 0 36 c0 35 -1 36 -40 36 -24 0
-43 -5 -46 -13z"/>
<path d="M3876 2290 c-74 -23 -99 -78 -94 -204 3 -106 18 -137 79 -169 51 -27
210 -20 260 10 54 34 64 62 64 174 0 83 -3 102 -21 125 -42 57 -67 68 -167 71
-50 1 -105 -2 -121 -7z m195 -79 c27 -28 29 -34 29 -111 0 -77 -2 -83 -29
-111 -26 -26 -36 -29 -91 -29 -97 0 -117 30 -111 165 5 90 29 114 119 115 46
0 58 -4 83 -29z"/>
<path d="M385 1700 c-4 -6 3 -10 14 -10 25 0 27 6 6 13 -8 4 -17 2 -20 -3z"/>
<path d="M2592 1423 c37 -2 100 -2 140 0 40 1 10 3 -67 3 -77 0 -110 -1 -73
-3z"/>
<path d="M2818 1423 c7 -3 16 -2 19 1 4 3 -2 6 -13 5 -11 0 -14 -3 -6 -6z"/>
<path d="M2883 1423 c9 -2 23 -2 30 0 6 3 -1 5 -18 5 -16 0 -22 -2 -12 -5z"/>
<path d="M2295 1410 l-70 -6 80 -5 c44 -3 88 -9 98 -13 12 -6 17 -4 17 7 0 15
-22 28 -43 25 -7 -1 -43 -4 -82 -8z"/>
<path d="M3060 1408 c0 -5 37 -8 82 -8 45 0 79 2 77 4 -8 8 -159 11 -159 4z"/>
<path d="M2618 1403 c7 -3 16 -2 19 1 4 3 -2 6 -13 5 -11 0 -14 -3 -6 -6z"/>
<path d="M3010 1400 c-8 -5 -12 -11 -10 -14 3 -2 14 2 24 10 22 15 10 19 -14
4z"/>
<path d="M2105 1390 l-40 -8 48 3 c37 2 47 -1 47 -14 0 -14 2 -14 10 -1 8 13
-5 32 -20 28 -3 0 -23 -4 -45 -8z"/>
<path d="M2448 1393 c6 -2 18 -2 25 0 6 3 1 5 -13 5 -14 0 -19 -2 -12 -5z"/>
<path d="M3320 1390 c20 -13 33 -13 25 0 -3 6 -14 10 -23 10 -15 0 -15 -2 -2
-10z"/>
<path d="M3368 1383 c6 -2 18 -2 25 0 6 3 1 5 -13 5 -14 0 -19 -2 -12 -5z"/>
<path d="M1965 1370 l-40 -7 52 -2 c28 0 55 4 58 9 7 11 -9 11 -70 0z"/>
<path d="M3428 1373 c6 -2 18 -2 25 0 6 3 1 5 -13 5 -14 0 -19 -2 -12 -5z"/>
<path d="M1850 1350 l-35 -7 38 -2 c20 0 37 4 37 9 0 6 -1 9 -2 9 -2 -1 -19
-5 -38 -9z"/>
<path d="M3550 1350 c-12 -8 -10 -10 8 -10 13 0 20 4 17 10 -7 12 -6 12 -25 0z"/>
<path d="M1750 1330 l-35 -7 35 -2 c19 0 42 4 50 9 13 9 13 10 0 9 -8 -1 -31
-5 -50 -9z"/>
<path d="M3673 1323 c9 -3 17 -9 17 -14 0 -5 19 -9 43 -9 53 1 31 16 -33 22
-25 3 -37 3 -27 1z"/>
<path d="M1645 1310 c-30 -8 -30 -8 8 -9 23 -1 36 3 32 9 -3 6 -7 9 -8 9 -1
-1 -15 -5 -32 -9z"/>
<path d="M3533 1283 c9 -2 23 -2 30 0 6 3 -1 5 -18 5 -16 0 -22 -2 -12 -5z"/>
<path d="M1458 1263 c6 -2 18 -2 25 0 6 3 1 5 -13 5 -14 0 -19 -2 -12 -5z"/>
<path d="M1510 1260 c8 -5 20 -10 25 -10 6 0 3 5 -5 10 -8 5 -19 10 -25 10 -5
0 -3 -5 5 -10z"/>
<path d="M1286 1221 c-15 -6 -16 -10 -7 -16 7 -4 16 -3 20 3 3 5 15 12 26 15
l20 5 -20 0 c-11 0 -29 -3 -39 -7z"/>
<path d="M1183 1192 c-58 -19 -76 -32 -45 -32 11 0 24 5 28 11 4 7 22 9 48 6
27 -4 34 -3 21 2 -19 9 -19 9 5 19 40 17 0 12 -57 -6z"/>
<path d="M2928 1203 c7 -3 16 -2 19 1 4 3 -2 6 -13 5 -11 0 -14 -3 -6 -6z"/>
<path d="M1035 1145 c-53 -21 -56 -24 -28 -24 17 -1 33 3 35 8 2 4 14 12 27
16 16 5 21 4 17 -4 -4 -6 -3 -11 3 -11 5 0 13 5 16 10 3 6 0 10 -7 10 -9 0 -9
3 2 10 25 16 -2 10 -65 -15z"/>
<path d="M2595 1150 c-3 -5 -1 -10 4 -10 6 0 11 5 11 10 0 6 -2 10 -4 10 -3 0
-8 -4 -11 -10z"/>
<path d="M1190 1140 c-9 -6 -10 -10 -3 -10 6 0 15 5 18 10 8 12 4 12 -15 0z"/>
<path d="M3475 1130 c-20 -5 6 -8 75 -9 58 0 112 3 119 8 18 12 -150 12 -194
1z"/>
<path d="M915 1100 c-49 -23 -42 -26 11 -5 35 14 37 14 19 0 -18 -14 -15 -15
30 -9 28 4 54 10 58 14 4 3 -6 5 -23 2 -17 -2 -36 0 -43 6 -9 8 -24 5 -52 -8z"/>
<path d="M1111 1094 c0 -11 3 -14 6 -6 3 7 2 16 -1 19 -3 4 -6 -2 -5 -13z"/>
<path d="M3518 1103 c6 -2 18 -2 25 0 6 3 1 5 -13 5 -14 0 -19 -2 -12 -5z"/>
<path d="M3058 1083 c6 -2 18 -2 25 0 6 3 1 5 -13 5 -14 0 -19 -2 -12 -5z"/>
<path d="M850 1070 c0 -5 12 -10 28 -9 24 0 25 1 7 9 -27 12 -35 12 -35 0z"/>
<path d="M945 1070 c-15 -6 -10 -8 18 -6 21 2 40 6 44 10 9 9 -38 6 -62 -4z"/>
<path d="M3338 1073 c7 -3 16 -2 19 1 4 3 -2 6 -13 5 -11 0 -14 -3 -6 -6z"/>
<path d="M744 1039 c-46 -17 -81 -36 -81 -44 0 -7 6 -11 14 -8 7 3 10 9 7 14
-3 5 2 6 10 3 9 -3 13 -10 10 -15 -3 -5 1 -9 9 -9 10 0 13 7 10 19 -3 14 3 21
28 30 17 6 42 11 54 11 13 0 25 7 29 15 7 19 5 19 -90 -16z"/>
<path d="M2145 1050 c3 -5 8 -10 11 -10 2 0 4 5 4 10 0 6 -5 10 -11 10 -5 0
-7 -4 -4 -10z"/>
<path d="M3298 1053 c7 -3 16 -2 19 1 4 3 -2 6 -13 5 -11 0 -14 -3 -6 -6z"/>
<path d="M3390 1056 c0 -2 7 -7 16 -10 8 -3 12 -2 9 4 -6 10 -25 14 -25 6z"/>
<path d="M2821 1046 c8 -8 78 -10 85 -3 4 4 -14 7 -41 7 -27 0 -46 -2 -44 -4z"/>
<path d="M840 1023 c8 -3 18 -11 22 -17 4 -6 10 -7 15 -3 9 10 -16 27 -37 26
-13 -1 -13 -1 0 -6z"/>
<path d="M2058 1023 c7 -3 16 -2 19 1 4 3 -2 6 -13 5 -11 0 -14 -3 -6 -6z"/>
<path d="M2738 1023 c6 -2 18 -2 25 0 6 3 1 5 -13 5 -14 0 -19 -2 -12 -5z"/>
<path d="M2795 1020 c-3 -5 1 -10 10 -10 9 0 13 5 10 10 -3 6 -8 10 -10 10 -2
0 -7 -4 -10 -10z"/>
<path d="M2848 1023 c6 -2 18 -2 25 0 6 3 1 5 -13 5 -14 0 -19 -2 -12 -5z"/>
<path d="M746 1012 c-4 -7 -1 -14 8 -17 9 -3 24 -7 33 -11 10 -3 14 -2 10 2
-4 4 1 13 11 20 16 12 15 13 -6 14 -13 0 -20 -4 -17 -10 3 -5 0 -10 -9 -10 -8
0 -16 5 -18 12 -3 9 -6 9 -12 0z"/>
<path d="M2655 1010 l-30 -8 27 -1 c15 0 30 4 33 9 3 6 5 9 3 9 -2 -1 -16 -5
-33 -9z"/>
<path d="M2758 1003 c7 -3 16 -2 19 1 4 3 -2 6 -13 5 -11 0 -14 -3 -6 -6z"/>
<path d="M2570 990 c-28 -9 -27 -10 15 -15 19 -3 25 -1 16 4 -11 7 -11 9 0 14
21 8 -3 6 -31 -3z"/>
<path d="M1899 977 c4 -4 18 -3 32 2 23 9 22 9 -8 8 -18 -1 -28 -6 -24 -10z"/>
<path d="M1845 970 c28 -12 37 -12 30 0 -3 6 -16 10 -28 9 -21 0 -21 -1 -2 -9z"/>
<path d="M2505 970 c-18 -8 -17 -9 8 -9 16 -1 26 3 22 9 -3 6 -7 10 -8 9 -1 0
-11 -4 -22 -9z"/>
<path d="M1818 958 c5 -5 16 -8 23 -6 8 3 3 7 -10 11 -17 4 -21 3 -13 -5z"/>
<path d="M2386 944 c-73 -18 -81 -24 -27 -21 22 1 41 5 41 10 0 5 11 7 23 5
15 -3 24 0 24 9 0 7 -1 13 -1 12 -1 0 -28 -7 -60 -15z"/>
<path d="M3690 940 c20 -8 16 -9 -18 -5 l-42 5 20 -20 c21 -21 35 -27 25 -10
-3 6 1 10 10 10 11 0 15 -5 11 -15 -3 -8 -1 -15 4 -15 6 0 10 5 10 10 0 6 10
10 23 10 18 0 19 -2 7 -10 -8 -5 -10 -10 -5 -10 6 1 18 7 28 15 18 13 18 14
-5 18 -12 3 2 3 32 1 32 -2 49 1 40 5 -8 5 -49 11 -90 14 -52 4 -67 3 -50 -3z"/>
<path d="M1685 900 c-3 -6 1 -7 9 -4 18 7 21 14 7 14 -6 0 -13 -4 -16 -10z"/>
<path d="M2235 903 c-11 -3 -24 -9 -30 -15 -13 -12 46 1 60 13 10 10 4 10 -30
2z"/>
<path d="M2288 903 c7 -3 16 -2 19 1 4 3 -2 6 -13 5 -11 0 -14 -3 -6 -6z"/>
<path d="M3448 882 c-43 -14 -78 -29 -78 -32 0 -3 12 -5 28 -6 15 0 36 -4 47
-8 14 -6 16 -5 6 2 -11 8 -11 11 0 16 8 3 3 3 -11 0 -19 -4 -21 -3 -9 5 28 18
109 42 119 36 6 -3 10 -1 10 4 0 16 -26 12 -112 -17z"/>
<path d="M3814 898 c10 -6 22 -6 26 -2 5 5 -3 10 -18 11 -22 1 -24 0 -8 -9z"/>
<path d="M1638 883 c7 -3 16 -2 19 1 4 3 -2 6 -13 5 -11 0 -14 -3 -6 -6z"/>
<path d="M3695 870 c-3 -5 -1 -10 4 -10 6 0 11 5 11 10 0 6 -2 10 -4 10 -3 0
-8 -4 -11 -10z"/>
<path d="M2104 855 c-18 -14 -17 -14 9 -5 36 13 50 13 42 0 -3 -6 1 -7 10 -3
13 5 14 7 3 14 -20 13 -42 11 -64 -6z"/>
<path d="M2920 850 c-9 -6 -10 -10 -3 -10 6 0 15 5 18 10 8 12 4 12 -15 0z"/>
<path d="M3530 850 c0 -5 5 -10 10 -10 6 0 10 5 10 10 0 6 -4 10 -10 10 -5 0
-10 -4 -10 -10z"/>
<path d="M2025 833 c-21 -7 -42 -16 -45 -19 -9 -9 54 8 80 22 32 17 16 16 -35
-3z"/>
<path d="M3316 837 l-30 -13 37 0 c20 0 32 3 26 7 -8 4 -7 8 2 12 8 3 10 6 4
6 -5 0 -23 -6 -39 -12z"/>
<path d="M3725 821 c-11 -9 -27 -25 -35 -35 -14 -18 -14 -19 8 -5 12 8 22 17
22 20 0 4 7 10 16 13 14 5 15 4 4 -9 -7 -8 -8 -15 -3 -15 6 0 18 10 29 23 10
12 15 19 10 15 -5 -4 -14 -4 -20 1 -7 6 -18 3 -31 -8z"/>
<path d="M1456 821 c-15 -6 -16 -10 -7 -15 8 -5 20 -2 29 8 17 17 9 19 -22 7z"/>
<path d="M3253 812 c-13 -2 -23 -8 -23 -13 0 -9 37 -3 49 7 8 7 -4 10 -26 6z"/>
<path d="M1395 790 c-13 -5 -14 -9 -5 -9 8 0 24 4 35 9 13 5 14 9 5 9 -8 0
-24 -4 -35 -9z"/>
<path d="M1852 773 c-34 -12 -41 -18 -32 -29 7 -7 9 -18 5 -24 -3 -5 -1 -10 4
-10 6 0 11 9 11 20 0 11 12 26 30 35 33 17 65 21 40 5 -11 -7 -11 -10 -2 -10
7 0 10 -5 7 -10 -4 -6 -16 -8 -28 -5 -19 4 -19 3 2 -7 19 -10 25 -10 29 0 2 6
12 12 22 12 9 0 23 7 30 15 10 13 9 15 -11 15 -13 0 -33 2 -44 5 -11 2 -39 -3
-63 -12z m101 -10 c-7 -2 -19 -2 -25 0 -7 3 -2 5 12 5 14 0 19 -2 13 -5z"/>
<path d="M3278 778 c6 -6 18 -8 28 -6 14 3 12 5 -9 10 -19 3 -25 2 -19 -4z"/>
<path d="M1356 772 c-3 -5 1 -9 9 -9 8 0 12 4 9 9 -3 4 -7 8 -9 8 -2 0 -6 -4
-9 -8z"/>
<path d="M3135 770 c-19 -8 -19 -9 2 -9 12 -1 25 4 28 9 7 12 -2 12 -30 0z"/>
<path d="M1285 737 c-17 -13 -17 -14 4 -12 26 2 54 25 30 25 -8 0 -23 -6 -34
-13z"/>
<path d="M1768 737 c-7 -8 -20 -12 -28 -9 -8 3 -12 2 -9 -2 4 -4 20 -9 36 -11
23 -3 29 1 30 16 2 22 -10 25 -29 6z"/>
<path d="M3095 740 c27 -12 43 -12 25 0 -8 5 -22 9 -30 9 -10 0 -8 -3 5 -9z"/>
<path d="M1210 730 c0 -5 5 -10 10 -10 6 0 10 5 10 10 0 6 -4 10 -10 10 -5 0
-10 -4 -10 -10z"/>
<path d="M3165 730 c3 -5 10 -10 16 -10 5 0 9 5 9 10 0 6 -7 10 -16 10 -8 0
-12 -4 -9 -10z"/>
<path d="M3055 720 c4 -6 11 -8 16 -5 14 9 11 15 -7 15 -8 0 -12 -5 -9 -10z"/>
<path d="M1676 704 c-50 -18 -49 -17 -23 -33 20 -13 21 -13 8 2 -17 21 -10 21
36 2 49 -21 55 -18 13 5 -21 11 -28 19 -18 20 9 0 20 5 23 10 7 12 10 12 -39
-6z"/>
<path d="M3106 695 c4 -8 8 -15 10 -15 2 0 4 7 4 15 0 8 -4 15 -10 15 -5 0 -7
-7 -4 -15z"/>
<path d="M3625 700 c3 -5 8 -10 11 -10 2 0 4 5 4 10 0 6 -5 10 -11 10 -5 0 -7
-4 -4 -10z"/>
<path d="M1755 691 c-10 -17 10 -20 35 -5 l25 13 -27 1 c-15 0 -29 -4 -33 -9z"/>
<path d="M2970 689 c0 -5 5 -7 10 -4 6 3 10 8 10 11 0 2 -4 4 -10 4 -5 0 -10
-5 -10 -11z"/>
<path d="M3011 691 c-11 -7 -11 -9 0 -14 8 -3 5 -6 -8 -6 -23 -1 -40 -18 -28
-29 3 -3 10 0 15 7 4 8 15 11 24 8 19 -8 30 8 19 27 -5 10 -13 12 -22 7z"/>
<path d="M3040 690 c0 -5 12 -10 26 -10 14 0 23 4 19 10 -3 6 -15 10 -26 10
-10 0 -19 -4 -19 -10z"/>
<path d="M1558 658 c-39 -14 -35 -24 9 -24 20 0 31 2 24 4 -9 3 -9 7 0 18 13
16 5 17 -33 2z"/>
<path d="M3070 661 c0 -6 4 -13 10 -16 6 -3 7 1 4 9 -7 18 -14 21 -14 7z"/>
<path d="M1700 650 c0 -5 5 -10 11 -10 5 0 7 5 4 10 -3 6 -8 10 -11 10 -2 0
-4 -4 -4 -10z"/>
<path d="M1143 635 c0 -8 4 -12 9 -9 5 3 6 10 3 15 -9 13 -12 11 -12 -6z"/>
<path d="M1473 619 c-40 -17 -62 -36 -26 -22 11 4 14 3 9 -5 -5 -8 -2 -10 8
-6 9 3 13 10 10 15 -3 5 -3 9 0 9 2 0 12 3 22 7 12 4 15 3 10 -5 -4 -7 -3 -12
3 -12 14 0 21 14 13 27 -5 7 -21 4 -49 -8z"/>
<path d="M2900 625 c0 -8 4 -15 10 -15 5 0 7 7 4 15 -4 8 -8 15 -10 15 -2 0
-4 -7 -4 -15z"/>
<path d="M3527 619 c7 -7 15 -10 18 -7 3 3 -2 9 -12 12 -14 6 -15 5 -6 -5z"/>
<path d="M1580 610 c0 -5 5 -10 11 -10 5 0 7 5 4 10 -3 6 -8 10 -11 10 -2 0
-4 -4 -4 -10z"/>
<path d="M2335 610 c4 -6 11 -8 16 -5 14 9 11 15 -7 15 -8 0 -12 -5 -9 -10z"/>
<path d="M2782 613 c-6 -2 -9 -9 -6 -14 4 -6 11 -6 19 1 10 8 17 7 26 -3 8 -8
23 -12 34 -10 17 4 18 3 5 -7 -13 -10 -13 -11 0 -7 23 6 26 47 3 47 -15 0 -16
-2 -3 -10 12 -8 11 -10 -7 -10 -12 0 -25 5 -28 10 -7 11 -22 12 -43 3z"/>
<path d="M1385 578 c-11 -7 -24 -13 -30 -14 -5 -1 -31 -12 -56 -25 -42 -22
-45 -26 -31 -39 14 -13 15 -12 9 3 -5 12 -1 17 13 17 11 0 20 4 20 9 0 5 10
13 23 17 21 8 28 9 53 12 7 1 14 9 18 17 6 18 7 18 -19 3z"/>
<path d="M2696 564 c-22 -13 -26 -18 -15 -25 8 -5 21 -8 29 -8 10 0 8 3 -5 8
-16 7 -14 9 13 14 18 4 32 11 32 17 0 14 -20 12 -54 -6z"/>
<path d="M2792 571 c4 -13 18 -16 19 -4 0 4 -5 9 -11 12 -7 2 -11 -2 -8 -8z"/>
<path d="M3426 555 c-3 -8 -12 -15 -20 -15 -9 0 -20 -9 -26 -20 -7 -14 -7 -20
0 -20 5 0 10 4 10 9 0 5 9 13 20 16 21 7 48 45 31 45 -5 0 -11 -7 -15 -15z"/>
<path d="M2306 535 c-11 -8 -15 -15 -9 -15 6 0 16 7 23 15 16 19 11 19 -14 0z"/>
<path d="M2626 527 c-16 -12 -16 -14 -2 -26 22 -18 20 -31 -4 -31 -11 0 -20
-5 -20 -11 0 -11 -24 -9 -65 5 -18 7 -18 6 -2 -4 9 -6 17 -16 17 -23 0 -7 11
-13 25 -13 15 -1 25 3 25 12 0 8 7 14 16 14 8 0 22 7 30 15 14 13 14 17 0 31
-14 14 -14 34 0 34 3 0 2 -4 -1 -10 -3 -5 1 -10 10 -10 9 0 15 5 13 12 -6 18
-22 20 -42 5z"/>
<path d="M2768 533 c6 -2 18 -2 25 0 6 3 1 5 -13 5 -14 0 -19 -2 -12 -5z"/>
<path d="M1380 520 c0 -5 5 -10 10 -10 6 0 10 5 10 10 0 6 -4 10 -10 10 -5 0
-10 -4 -10 -10z"/>
<path d="M2703 513 c-18 -7 -16 -23 2 -23 8 0 15 7 15 15 0 8 -1 15 -2 14 -2
0 -9 -3 -15 -6z"/>
<path d="M1220 500 c0 -5 5 -10 10 -10 6 0 10 5 10 10 0 6 -4 10 -10 10 -5 0
-10 -4 -10 -10z"/>
<path d="M1345 500 c3 -5 8 -10 11 -10 2 0 4 5 4 10 0 6 -5 10 -11 10 -5 0 -7
-4 -4 -10z"/>
<path d="M2165 470 c-3 -6 1 -7 9 -4 18 7 21 14 7 14 -6 0 -13 -4 -16 -10z"/>
<path d="M2190 460 c-14 -11 -20 -20 -14 -20 6 0 19 9 29 20 23 25 17 25 -15
0z"/>
<path d="M3310 470 c0 -5 7 -7 15 -4 8 4 15 8 15 10 0 2 -7 4 -15 4 -8 0 -15
-4 -15 -10z"/>
<path d="M2456 425 c-8 -8 -19 -15 -25 -15 -5 0 -12 -4 -16 -9 -3 -6 10 -8 32
-5 l38 4 -31 -10 c-18 -6 -35 -17 -38 -26 -9 -24 3 -32 18 -12 7 9 19 18 26
20 8 2 21 9 28 16 7 6 28 12 45 12 29 1 30 2 15 14 -10 7 -15 16 -11 19 3 4 2
7 -4 7 -6 0 -17 -10 -25 -22 -8 -12 -19 -18 -26 -14 -17 10 -15 26 3 20 8 -4
15 -4 15 -1 0 13 -31 14 -44 2z"/>
<path d="M2048 413 c7 -3 16 -2 19 1 4 3 -2 6 -13 5 -11 0 -14 -3 -6 -6z"/>
<path d="M2085 410 c-4 -6 1 -7 11 -3 12 4 15 3 10 -5 -5 -8 -2 -10 9 -5 13 5
14 7 3 14 -17 11 -26 11 -33 -1z"/>
<path d="M2005 390 c3 -5 10 -10 16 -10 5 0 9 5 9 10 0 6 -7 10 -16 10 -8 0
-12 -4 -9 -10z"/>
<path d="M2364 374 c-18 -14 -18 -15 6 -9 23 5 23 5 5 -6 -11 -6 -30 -21 -42
-32 -13 -11 -23 -15 -23 -9 0 7 -4 12 -10 12 -11 0 -9 -28 3 -47 4 -6 1 -14
-5 -16 -10 -4 -10 -6 0 -6 7 -1 17 9 22 22 5 12 9 16 9 10 1 -7 8 -13 16 -13
17 0 20 16 5 25 -13 8 -5 22 20 35 16 8 18 8 14 -5 -4 -8 -11 -15 -17 -15 -6
0 -8 -2 -5 -5 3 -3 13 -3 22 1 12 5 16 15 12 36 -6 39 -9 41 -32 22z"/>
<path d="M3090 359 c0 -5 5 -7 10 -4 6 3 10 8 10 11 0 2 -4 4 -10 4 -5 0 -10
-5 -10 -11z"/>
<path d="M2450 350 c0 -5 4 -10 9 -10 6 0 13 5 16 10 3 6 -1 10 -9 10 -9 0
-16 -4 -16 -10z"/>
<path d="M1950 330 c-9 -6 -10 -10 -3 -10 6 0 15 5 18 10 8 12 4 12 -15 0z"/>
<path d="M2015 329 c-4 -6 -14 -8 -24 -4 -13 5 -14 4 -3 -6 10 -11 15 -10 29
4 10 9 14 17 11 17 -4 0 -10 -5 -13 -11z"/>
<path d="M2480 329 c0 -5 5 -7 10 -4 6 3 10 8 10 11 0 2 -4 4 -10 4 -5 0 -10
-5 -10 -11z"/>
<path d="M2247 303 c-32 -17 -32 -25 0 -17 12 3 24 12 27 20 3 8 4 14 3 13 -1
-1 -15 -8 -30 -16z"/>
<path d="M2975 300 c-3 -5 -2 -10 4 -10 5 0 13 5 16 10 3 6 2 10 -4 10 -5 0
-13 -4 -16 -10z"/>
<path d="M2187 265 c-9 -8 -19 -15 -24 -15 -4 -1 -21 -12 -38 -26 -19 -16 -22
-22 -9 -15 12 6 25 7 29 3 5 -4 5 -2 2 4 -4 7 5 14 22 17 16 3 31 14 35 23 9
24 1 28 -17 9z"/>
<path d="M2256 272 c-4 -6 -13 -9 -21 -5 -19 7 -19 -4 -1 -23 14 -13 46 -10
46 5 -1 16 -18 33 -24 23z"/>
<path d="M2696 225 c-19 -15 -19 -15 2 -15 12 0 22 5 22 11 0 6 7 9 15 5 8 -3
15 -1 15 4 0 15 -32 11 -54 -5z"/>
<path d="M1859 228 c-8 -28 -5 -35 14 -30 12 3 16 7 9 10 -7 2 -10 8 -6 13 3
5 0 9 -5 9 -6 0 -11 -1 -12 -2z"/>
<path d="M2069 183 c-13 -16 -12 -17 4 -4 16 13 21 21 13 21 -2 0 -10 -8 -17
-17z"/>
</g>
</svg>
